<svg xmlns="http://www.w3.org/2000/svg" viewBox="0 0 500 500"><g id="freepik--Shadow--inject-71"><ellipse id="freepik--path--inject-71" cx="250" cy="416.24" rx="193.89" ry="11.32" style="fill:#f5f5f5"></ellipse></g><g id="freepik--Sand--inject-71"><path d="M384,366.91s4.35-6.37,8.31-8.15,4.6-8.55,6.75-8.92,4.52,5.87,8.28,7.69,9.45,9.34,9.45,9.34Z" style="fill:#407BFF"></path><path d="M384,366.91s4.35-6.37,8.31-8.15,4.6-8.55,6.75-8.92,4.52,5.87,8.28,7.69,9.45,9.34,9.45,9.34Z" style="fill:#fff;opacity:0.8;isolation:isolate"></path><polygon points="415.62 412.77 383.98 412.77 379.98 366.87 419.62 366.87 415.62 412.77" style="fill:#407BFF"></polygon><rect x="378.06" y="364.49" width="43.47" height="4.83" style="fill:#407BFF"></rect><rect x="378.06" y="364.49" width="43.47" height="4.83" style="fill:#fff;opacity:0.2;isolation:isolate"></rect><path d="M397.93,367.89c2.88,4.52,15.21,23.17,22.85,24.53l.94-2.26s-6.84.82-22-23.41a1.08,1.08,0,0,0-1.43-.39h0A1.07,1.07,0,0,0,397.93,367.89Z" style="fill:#263238"></path><path d="M352.91,353.41h0a2.55,2.55,0,0,1,3.22,1.73l5.4,18.89,7-2.81s4.23,15.75-3.76,18.24C357,391.89,351,377.35,351,377.35l7.14-2-6.82-18.66A2.55,2.55,0,0,1,352.91,353.41Z" style="fill:#407BFF"></path><path d="M364.8,389.46C357,391.89,351,377.35,351,377.35l7.14-2s1.23,2.1,2.61,1.58.82-2.93.82-2.93l7-2.81S372.79,387,364.8,389.46Z" style="fill:#fff;opacity:0.4;isolation:isolate"></path><path d="M424.67,416.65c-3.93-1.95-7.95-3.79-9.24-3.88-2.76-.18-4.35-1.41-6.32-3.76s-2.77-5.07-6.33-8.85.39-5.3-7.13-6.27-4.61-.36-9.23-3.69-3.68-3.32-9.09-5.7-2.25-3.28-8.58-3.81c-4.37-.37-11.28,1.93-14.87,4.49-1.59,1.13-2.4,3-4,4-1.77,1.13-4.52-1-4.23,2.81a9.78,9.78,0,0,1,.13,2.95c-.51,2.14-9.32,2.13-11.56,2.8a2.16,2.16,0,0,0-1.34.82c-.51.91.26,2.52-.73,2.85-.31.11-.66,0-1,.05-1.19.23-.88,2.37-2,2.86s-2.41-.51-3.65,0c-.95.36-1.27,1.64-2.1,2.15-1.45.88-2.95,1.53-4.38,2.47-2.48,1.62-4.63,3.61-7.29,5l-7.12,1.94-2.13.75Z" style="fill:#407BFF"></path><path d="M424.67,416.65c-3.93-1.95-7.95-3.79-9.24-3.88-2.76-.18-4.35-1.41-6.32-3.76s-2.77-5.07-6.33-8.85.39-5.3-7.13-6.27-4.61-.36-9.23-3.69-3.68-3.32-9.09-5.7-2.25-3.28-8.58-3.81c-4.37-.37-11.28,1.93-14.87,4.49-1.59,1.13-2.4,3-4,4-1.77,1.13-4.52-1-4.23,2.81a9.78,9.78,0,0,1,.13,2.95c-.51,2.14-9.32,2.13-11.56,2.8a2.16,2.16,0,0,0-1.34.82c-.51.91.26,2.52-.73,2.85-.31.11-.66,0-1,.05-1.19.23-.88,2.37-2,2.86s-2.41-.51-3.65,0c-.95.36-1.27,1.64-2.1,2.15-1.45.88-2.95,1.53-4.38,2.47-2.48,1.62-4.63,3.61-7.29,5l-7.12,1.94-2.13.75Z" style="fill:#fff;opacity:0.8;isolation:isolate"></path><path d="M340.75,398.45a1.62,1.62,0,0,1,0,.22h0a18,18,0,0,1-2.84,9.55c-.15.23-.3.46-.47.69a18.21,18.21,0,0,1-3.76,3.93,11.88,11.88,0,0,1-1,.73h0a1.75,1.75,0,0,1-.25.16l-.33.21a5.74,5.74,0,0,1-.53.32c-.28.16-.57.32-.86.46h0A18.14,18.14,0,0,1,309.39,411a17.68,17.68,0,0,1-3.05-4.27,18.09,18.09,0,0,1-2-8.29v-.06c0-.51,0-1,.07-1.52a17.9,17.9,0,0,1,1.93-6.72,16.42,16.42,0,0,1,.88-1.53,18.54,18.54,0,0,1,3.84-4.3,15.68,15.68,0,0,1,1.49-1.08,6.65,6.65,0,0,1,.56-.36,17.8,17.8,0,0,1,4.6-2l.42-.11a18.32,18.32,0,0,1,4.42-.54q.7,0,1.38.06l.35,0h0a17.92,17.92,0,0,1,5.84,1.58l.23.11a18.16,18.16,0,0,1,10.23,14v0A17,17,0,0,1,340.75,398.45Z" style="fill:#407BFF"></path><path d="M340.75,398.45a18.16,18.16,0,0,1-10.08,16.28h0a3.82,3.82,0,0,1-1-1.23c3.36-9.8,0-15.05,0-15.05v-.1l.24-1.57,0-.29c.52-2.91,1.83-8.36,4.67-11.66A18.17,18.17,0,0,1,340.75,398.45Z" style="fill:#fff;opacity:0.6000000000000001;isolation:isolate"></path><path d="M308.59,395.3s-3.19,3.19-2.25,11.44a18.2,18.2,0,0,1,4.72-22.42A21.92,21.92,0,0,0,308.59,395.3Z" style="fill:#fff;opacity:0.6000000000000001;isolation:isolate"></path><path d="M334.63,384.83c-4,4.64-5,13.62-5,13.62-11,2.69-21.07-3.15-21.07-3.15a22,22,0,0,1,2.47-11,18.2,18.2,0,0,1,23.57.51Z" style="fill:#fff;opacity:0.2;isolation:isolate"></path><path d="M330.66,414.73A18.14,18.14,0,0,1,309.39,411c3.41,2,10.38,4.87,20.27,2.49A3.82,3.82,0,0,0,330.66,414.73Z" style="fill:#fff;opacity:0.2;isolation:isolate"></path><g style="opacity:0.2;isolation:isolate"><path d="M330.36,382a21.37,21.37,0,0,0-1.31,2.08,32.09,32.09,0,0,0-1.91,4.28c-.56,1.47-1,3-1.4,4.49s-.74,3.06-1,4.61a32.28,32.28,0,0,1,.66-4.69,38.5,38.5,0,0,1,1.3-4.58,28.2,28.2,0,0,1,2-4.3,21.86,21.86,0,0,1,1.42-2Z"></path><path d="M324.28,380.32c-.25.45-.48.91-.7,1.37a31.26,31.26,0,0,0-1.81,4.81c-.53,1.64-.93,3.32-1.31,5s-.7,3.38-1,5.08a42.73,42.73,0,0,1,.62-5.16,43.77,43.77,0,0,1,1.2-5.06,28.25,28.25,0,0,1,1.95-4.85c.22-.41.45-.82.69-1.21Z"></path><path d="M318.13,380.78l-.31.81a35.51,35.51,0,0,0-1.35,4.55c-.39,1.54-.69,3.1-1,4.67s-.53,3.14-.76,4.72a40.35,40.35,0,0,1,.39-4.78A47.2,47.2,0,0,1,316,386a29.89,29.89,0,0,1,1.47-4.59c.08-.18.16-.37.25-.55Z"></path><path d="M313.11,382.88c-.34,1.12-.66,2.24-.89,3.38s-.5,2.56-.7,3.85-.34,2.59-.46,3.9a27.29,27.29,0,0,1,.08-3.94,36.88,36.88,0,0,1,.59-3.91,29.39,29.39,0,0,1,.82-2.92A6.65,6.65,0,0,1,313.11,382.88Z"></path><path d="M334.78,404.52a17.82,17.82,0,0,1-.73,5.57,18.83,18.83,0,0,1-1,2.63c-.13.29-.28.58-.43.86h0a1.75,1.75,0,0,1-.25.16,21,21,0,0,0,1.29-3.75,18.65,18.65,0,0,0,.6-5.46,20,20,0,0,0-.84-5.43,22.26,22.26,0,0,0-2.2-5.09,17.49,17.49,0,0,1,2.56,5A18.65,18.65,0,0,1,334.78,404.52Z"></path><path d="M338.37,404l-.05,1.51-.21,1.5a9.87,9.87,0,0,1-.21,1.21c-.15.23-.3.46-.47.69a13,13,0,0,0,.3-1.95l.15-1.48,0-1.48a10.6,10.6,0,0,0,0-1.49c-.05-.49-.05-1-.14-1.47a21.86,21.86,0,0,0-1.47-5.73,20.32,20.32,0,0,0-2.94-5.16,17,17,0,0,1,3.29,5,21,21,0,0,1,1.62,5.82c.08.5.07,1,.11,1.51A10.88,10.88,0,0,1,338.37,404Z"></path><path d="M340.75,398.45a1.62,1.62,0,0,1,0,.22l-.06-.34a26.55,26.55,0,0,0-2-6,21.68,21.68,0,0,0-3.46-5.33,18.59,18.59,0,0,1,3.8,5.16,24.77,24.77,0,0,1,1.58,3.89v0A17,17,0,0,1,340.75,398.45Z"></path><path d="M307.7,392.42a14.91,14.91,0,0,0-2.05,3,19.58,19.58,0,0,0-1.31,3c0-.51,0-1,.07-1.52a15.11,15.11,0,0,1,.91-1.68A10.56,10.56,0,0,1,307.7,392.42Z"></path><path d="M308.56,387.58c-.76.86-1.5,1.71-2.22,2.57a16.42,16.42,0,0,1,.88-1.53A15,15,0,0,1,308.56,387.58Z"></path><path d="M308.56,399.16c1.66.64,3.34,1.2,5,1.7a48.94,48.94,0,0,0,5.16,1.23,23.56,23.56,0,0,0,10.5-.13,15.76,15.76,0,0,1-5.24,1,27.45,27.45,0,0,1-5.35-.42,38.3,38.3,0,0,1-5.18-1.36A34.9,34.9,0,0,1,308.56,399.16Z"></path><path d="M308.56,403.51a44.39,44.39,0,0,0,5.12,1.68,38.11,38.11,0,0,0,5.28,1,30,30,0,0,0,5.36.25l1.34-.06,1.34-.16c.9-.06,1.76-.32,2.66-.45a22.31,22.31,0,0,1-5.32,1.06,28.26,28.26,0,0,1-5.44-.14,34.26,34.26,0,0,1-5.32-1.14A28.13,28.13,0,0,1,308.56,403.51Z"></path><path d="M309,407.27a33.23,33.23,0,0,0,4.87,1.82,30.68,30.68,0,0,0,5.08,1c.86.14,1.72.16,2.58.22s1.73,0,2.6-.05a30,30,0,0,0,5.14-.74,21.72,21.72,0,0,1-5.11,1.13,23.82,23.82,0,0,1-5.27-.06,26.47,26.47,0,0,1-5.13-1.16A22.79,22.79,0,0,1,309,407.27Z"></path><path d="M309.75,410.1a32.12,32.12,0,0,0,4.59,1.71,29,29,0,0,0,4.78,1A22.55,22.55,0,0,0,324,413l1.22-.09,1.2-.2c.82-.08,1.59-.36,2.4-.52a17.91,17.91,0,0,1-4.79,1.2,21.11,21.11,0,0,1-5,0,25.06,25.06,0,0,1-4.83-1.11A21.39,21.39,0,0,1,309.75,410.1Z"></path></g></g><g id="freepik--travel-bag--inject-71"><path d="M113.79,369.84s3.56-5.35,9.89-5.74,11.67,7.68,11.67,7.68h-2s-5.11-5.51-8.77-5.51-7.22,4.55-7.22,4.55Z" style="fill:#263238"></path><path d="M60.08,412.06c2.19-3.65,26.72-1.28,32.26-3.46l3,5.15s-4.23,2.34-11.25,1.51-17.63-1.05-20.4,1.39Z" style="fill:#263238"></path><path d="M60.08,412.06c2.19-3.65,26.72-1.28,32.26-3.46l3,5.15s-4.23,2.34-11.25,1.51-17.63-1.05-20.4,1.39Z" style="opacity:0.30000000000000004;isolation:isolate"></path><path d="M163.4,400.93c-.2.87-.42,1.72-.67,2.55-2,6.81-5.08,12.32-7.32,13.17H91.82a5.73,5.73,0,0,1-4.53-2.22l-.05-.07a5,5,0,0,1-.59-1c-4.39-9.17-8.82-27.51-2.59-35.87a13.9,13.9,0,0,1,2.24-2.36l.18-.14a18.73,18.73,0,0,1,4.34-2.65h.05c4.38-2,9.76-2.89,15-3.28,1.53-.12,3-.19,4.54-.22,3.9-.11,7.54,0,10.44.07,10.22.26,18.26,3.3,23.74,2.77a16.45,16.45,0,0,1,6,.48,17,17,0,0,1,1.66.56,26.8,26.8,0,0,1,6.88,4.23C165.39,381.92,165.48,392.11,163.4,400.93Z" style="fill:#263238"></path><path d="M163.4,400.93c-.2.87-.42,1.72-.67,2.55-2,6.81-5.08,12.32-7.32,13.17H91.82a5.73,5.73,0,0,1-4.53-2.22l-.05-.07a5,5,0,0,1-.59-1c-4.39-9.17-8.82-27.51-2.59-35.87a13.9,13.9,0,0,1,2.24-2.36l.18-.14a18.73,18.73,0,0,1,4.34-2.65h.05c4.38-2,9.76-2.89,15-3.28,1.53-.12,3-.19,4.54-.22,3.9-.11,7.54,0,10.44.07,10.22.26,18.26,3.3,23.74,2.77a16.45,16.45,0,0,1,6,.48,17,17,0,0,1,1.66.56,26.8,26.8,0,0,1,6.88,4.23C165.39,381.92,165.48,392.11,163.4,400.93Z" style="fill:#fff;opacity:0.1;isolation:isolate"></path><path d="M153.66,400.3c-4.55,0-13.65,2.17-27.1-.79a42.61,42.61,0,0,0-19.09-.14c-.15-2-.31-4.23-.49-6.65-1.19-16.25-10.46-23.07-16.11-20.37h-.05A25,25,0,0,0,86.48,375l-.18.14a13.9,13.9,0,0,0-2.24,2.36c-6.23,8.36-1.8,26.7,2.59,35.87a5,5,0,0,0,.59,1l.05.07a5.76,5.76,0,0,0,4.32,1.95H103c4.65,0,5.2-4.26,4.68-13.41.79-.45,1.76-1,2.84-1.74,2.83-1.84,13.84-.93,18.59.85s17.21,2.57,23.24,1.59a40.28,40.28,0,0,1,10.36-.19c.25-.83.47-1.68.67-2.55C161.32,400.71,157,400.3,153.66,400.3Z" style="opacity:0.2;isolation:isolate"></path><path d="M112.32,377.35c2.77,10.09,4.67,13.65,5.4,14.64s20.87,3.38,24.65,3.37a73.18,73.18,0,0,0,13-1.28c2.57-.65,3.4-13.59-3.08-21.35a17,17,0,0,0-1.66-.56c3.53,7.92,3.61,17.62,3.19,19-.6,1.92-6.53,1.64-9.3,1.58s-20-1.13-21.76-1.83a9.13,9.13,0,0,1-4.15-3.45c-1.39-1.78-1.58-7.91-4.09-13.2a20.76,20.76,0,0,0-4.11-5.39c-1.49,0-3,.1-4.54.22A13.19,13.19,0,0,1,112.32,377.35Z" style="opacity:0.2;isolation:isolate"></path><path d="M92.34,386.64,86.8,388s-3.93,11.28-1.58,16-16,11.29-25.14,8l3.58,4.59s21.76-1.37,25.91-9.65-1.78-9.56-2.17-11.89S92.34,386.64,92.34,386.64Z" style="fill:#263238"></path><path d="M92.34,386.64,86.8,388s-3.93,11.28-1.58,16-16,11.29-25.14,8l3.58,4.59s21.76-1.37,25.91-9.65-1.78-9.56-2.17-11.89S92.34,386.64,92.34,386.64Z" style="fill:#fff;opacity:0.1;isolation:isolate"></path></g><g id="freepik--Character--inject-71"><g id="freepik--group--inject-71"><path d="M141.27,154s-21.4-12-25.83-15.08-28.13-26.35-29.45-27c0,0,.88-2.66-1.11-4.21s-9.75-6.64-10.85-6.64-4,10.85-3.55,13.51,11.3,3.32,11.3,3.32,22.59,26.3,26.13,30,27.68,19.41,27.68,19.41Z" style="fill:#e4897b"></path><path d="M150.05,156.21s4.69,9.47-6.7,24.51l-25.11-18.46,10-18.15Z" style="fill:#407BFF"></path><path d="M143.35,180.72,131.49,172l-1.55-1.14L123.25,166l-5-3.69,3.69-6.67L124,151.8l4.25-7.69,4.1,2.28,3.54,2,14.14,7.86a11.25,11.25,0,0,1,.85,3.45C151.35,163.69,150.67,171.05,143.35,180.72Z" style="fill:#fff;opacity:0.6000000000000001;isolation:isolate"></path><path d="M143.35,180.72,131.49,172c4.07-8.42,14.6-11.39,19.41-12.34C151.35,163.69,150.67,171.05,143.35,180.72Z" style="opacity:0.2;isolation:isolate"></path><g style="opacity:0.2"><polygon points="135.91 148.35 132.37 150.41 132.37 146.39 135.91 148.35" style="fill:#fff"></polygon><polygon points="128.21 153.04 123.77 159.27 121.93 155.59 124.02 151.8 128.21 153.04" style="fill:#fff"></polygon><polygon points="131.49 162.41 129.94 170.86 123.25 165.95 131.49 162.41" style="fill:#fff"></polygon><polygon points="134.56 157.59 137.03 163.92 142.16 156.94 134.56 157.59" style="fill:#fff"></polygon></g><path d="M196.72,151.73s21.4-12,25.83-15.08,28.13-26.35,29.46-27c0,0-.89-2.66,1.1-4.21s9.75-6.64,10.85-6.64,4,10.85,3.55,13.51-11.3,3.32-11.3,3.32-22.59,26.31-26.13,30S202.4,165,202.4,165Z" style="fill:#e4897b"></path><path d="M171.15,278.45S170.69,286,170,296.1c-.46,6.28-1,13.53-1.65,20.54-.84,9.42-1.79,18.4-2.74,24-.87,5.13-12.42,68.84-12.42,68.84h-7.74c2.44-59.41,6.22-82.45,6.36-85.91,0-1.13.09-2.7.14-4.57.15-6.78.28-17.49.36-25.28.06-5.62.09-9.71.09-9.71Z" style="fill:#e4897b"></path><path d="M201,326.52c-.27,5.19-3.36,82.68-3.36,82.68h-8.51c-4.35-61.72-2.7-83.15-3.48-87.43,0,0,0,0,0,0-1.33-7.28-2.58-16.85-3.44-24-.69-5.71-1.12-9.82-1.12-9.82l17.35-7.5s1.05,9,1.84,19.78c.39,5.4.73,11.27.83,16.73C201.19,320.38,201.17,323.64,201,326.52Z" style="fill:#e4897b"></path><path d="M152.27,293.7,170,296.1c-.46,6.28-1,13.53-1.65,20.54L151.91,319C152.06,312.2,152.19,301.49,152.27,293.7Z" style="opacity:0.2;isolation:isolate"></path><path d="M201.12,317l-15.46,4.76c-1.33-7.28-2.58-16.85-3.44-24l18.07,2.46C200.68,305.63,201,311.5,201.12,317Z" style="opacity:0.2;isolation:isolate"></path><path d="M155,407.08H144.77a.75.75,0,0,0-.72.58l-1.65,7.48a1.24,1.24,0,0,0,.95,1.47,1.33,1.33,0,0,0,.28,0c3.3-.05,5.71-.26,9.85-.26,2.56,0,10.27.27,13.79.27s4-3.48,2.55-3.81c-6.48-1.41-11.36-3.36-13.43-5.22A2,2,0,0,0,155,407.08Z" style="fill:#407BFF"></path><path d="M198.28,406.82H188.07a.73.73,0,0,0-.72.57l-1.66,7.49a1.25,1.25,0,0,0,1,1.47l.27,0c3.31-.05,5.71-.25,9.86-.25,2.55,0,10.26.26,13.79.26s4-3.48,2.54-3.8c-6.48-1.41-11.35-3.37-13.42-5.23A2,2,0,0,0,198.28,406.82Z" style="fill:#407BFF"></path><path d="M171.85,312.27c.08-.68.16-1.39.24-2.19,1-10.24,2.09-22.53,3-34.37,3.45,9.28,4.94,22.33,6.74,36.56h21c-1.74-36.83-6.3-66.79-8.72-79.57H149.57c-.06,4.58-.57,49-1.72,79.57Z" style="fill:#263238"></path><path d="M171.85,312.27c.08-.68.16-1.39.24-2.19,1-10.24,2.09-22.53,3-34.37,3.45,9.28,4.94,22.33,6.74,36.56h21c-1.74-36.83-6.3-66.79-8.72-79.57H149.57c-.06,4.58-.57,49-1.72,79.57Z" style="fill:#fff;opacity:0.2;isolation:isolate"></path><path d="M178,141.49a11,11,0,0,1-.36,1.19,11.72,11.72,0,0,1-4.16,5.54,11.3,11.3,0,0,1-1.52.94,10.54,10.54,0,0,1-12.58-2c-4.21-4.25-4.1-9.16-4.58-17.47a11.52,11.52,0,0,1,.85-5.23,11.38,11.38,0,0,1,14.88-6.14C178.65,121.64,179.77,134,178,141.49Z" style="fill:#e4897b"></path><path d="M173.45,148.22a11.3,11.3,0,0,1-1.52.94,10.57,10.57,0,0,1-9.11.4,12.7,12.7,0,0,1,1.49-2.82A16.45,16.45,0,0,1,173.45,148.22Z" style="opacity:0.2;isolation:isolate"></path><path d="M156.72,159c4.1,3.72,14.13,2.35,14.13,2.35s6.26-1.72,4.94-3.67c-3.68-.61-5.47-2.33-6.21-4.54a10.8,10.8,0,0,1-.37-4.21,21,21,0,0,1,.31-2.35l-12.4-9.18C158.74,143.46,160.73,154.61,156.72,159Z" style="fill:#e4897b"></path><path d="M173.45,133.93l1.79.67-.89-3.66s2.62-4,0-7.47c0,0,7.24-2.2,3.15-6-1.52-1.42-3.41,0-8.41-2.17-2.71-1.19-11.19-1.28-11.61,2.17,0,0-6.11,0-6.77,10.4a20.82,20.82,0,0,0,6.47,16.44s7.38,1.74,11-1.22S173.45,133.93,173.45,133.93Z" style="fill:#263238"></path><path d="M168.73,134.52a5.35,5.35,0,0,0,2.76,3.69c1.69.72,2.81-1.66,2.56-4.16-.23-2.22-1.38-5.34-3.19-4.92S168.14,132.28,168.73,134.52Z" style="fill:#e4897b"></path><path d="M175.13,275.66c-.95,11.84-2,24.16-3,34.4-1.52-14.79-3.38-25.33-3.38-25.33s-1.74-1.43-6.53-9.07,0-21.92,0-21.92C162,267,175.13,275.66,175.13,275.66Z" style="opacity:0.2;isolation:isolate"></path><polygon points="204.38 310.54 203.46 314.01 181.1 314.01 181.1 310.8 204.38 310.54" style="fill:#407BFF"></polygon><polygon points="172.93 311.02 172.26 314.23 146.94 314.23 145.41 311.02 172.93 311.02" style="fill:#407BFF"></polygon><path d="M176.05,156.59s-3.64-5.75-12.81-6.16-9.87,5.9-9.87,5.9Z" style="fill:#407BFF"></path><path d="M176.05,156.59s-3.64-5.75-12.81-6.16-9.87,5.9-9.87,5.9Z" style="fill:#fff;opacity:0.5;isolation:isolate"></path><path d="M143.12,153a471.73,471.73,0,0,1-1,93.53l53.73-3.28c-.6-54.83-7.95-89.37-7.95-89.37s-13.85,2.91-25.12,2.49A81.05,81.05,0,0,1,143.12,153Z" style="fill:#407BFF"></path><path d="M187.94,153.92s7.18,16.78,7.95,33.76S166.73,228,166.73,228s-23.07-15.88-40.87-14.44-23.34,7.77-23.34,7.77,13.84-29.61,37.94-39.93c0,0-5-17.05,2.66-28.32C143.12,153,159.78,158.46,187.94,153.92Z" style="fill:#407BFF"></path><path d="M195.89,187.68a13.87,13.87,0,0,1,0,1.44,16.87,16.87,0,0,1-.27,2.21,23.93,23.93,0,0,1-1.53,5h0a55.08,55.08,0,0,1-8.28,13c-1.7,2.08-3.5,4.08-5.28,5.94A140.57,140.57,0,0,1,166.73,228a109.92,109.92,0,0,0-19.23-10.15c-2.05-.82-4.18-1.59-6.35-2.24h0a42.36,42.36,0,0,0-15.28-2,58.45,58.45,0,0,0-14.51,2.84c-.81.28-1.56.58-2.25.87l-.62.27a24.52,24.52,0,0,0-4.28,2.39c-.15.1-.29.21-.42.31s-.47.36-.65.52l-.24.21a1.33,1.33,0,0,0-.17.16l-.12.12-.07.07c0-.05.12-.26.3-.62l.28-.55c.28-.56.67-1.31,1.18-2.22l.22-.4.39-.69c.13-.24.27-.49.42-.74.58-1,1.26-2.16,2-3.39a101.48,101.48,0,0,1,14.5-18.34h0a70.35,70.35,0,0,1,6.24-5.51,55.75,55.75,0,0,1,12.36-7.45A48.25,48.25,0,0,1,138.88,168a34.93,34.93,0,0,1,.35-4.27A25.19,25.19,0,0,1,143.12,153a51.85,51.85,0,0,0,7.5,1.59,97.26,97.26,0,0,0,10,1,126.49,126.49,0,0,0,20.18-.71q3.42-.37,7.11-1l.23.56a118,118,0,0,1,4.11,12.21c.44,1.59.88,3.29,1.3,5.07s.74,3.37,1.06,5.14h0A83.65,83.65,0,0,1,195.89,187.68Z" style="fill:#fff;opacity:0.6000000000000001;isolation:isolate"></path><g style="opacity:0.2;isolation:isolate"><path d="M189,201.31l-3.16,8.08c-1.7,2.08-3.5,4.08-5.28,5.94l-6.43-12Z" style="fill:#fff"></path><path d="M134.56,193.59l-12.7.73a70.35,70.35,0,0,1,6.24-5.51Z" style="fill:#fff"></path><path d="M149.21,161.6l-1.36,13.2-9-6.81a34.93,34.93,0,0,1,.35-4.27Z" style="fill:#fff"></path><polygon points="153.37 196.38 149.21 183.7 161.86 181.36 153.37 196.38" style="fill:#fff"></polygon><polygon points="175.13 184.3 175.13 193.79 184.21 190.53 175.13 184.3" style="fill:#fff"></polygon><path d="M151.77,211.79l-4.27,6c-2.05-.82-4.18-1.59-6.35-2.24h0l-3.22-7.34Z" style="fill:#fff"></path><polygon points="119.33 202.69 125.86 205.46 119.33 209.91 119.33 202.69" style="fill:#fff"></polygon><path d="M111.35,216.36c-6.5,2.27-8.83,4.93-8.83,4.93a90.13,90.13,0,0,1,4.83-8.62Z" style="fill:#fff"></path><polygon points="164.71 204.08 159.09 209.91 167.59 211.4 164.71 204.08" style="fill:#fff"></polygon><polygon points="164.71 167.48 171.32 176.38 176.05 166.3 164.71 167.48" style="fill:#fff"></polygon><path d="M194.64,176.9l-8.45-5.56,6.09-4.65C193.14,169.77,194,173.24,194.64,176.9Z" style="fill:#fff"></path><path d="M195.88,189.12a22,22,0,0,1-1.8,7.25l-3.54-8.71Z" style="fill:#fff"></path><path d="M188.17,154.48,182.82,160l-2-5.08q3.42-.37,7.11-1Z" style="fill:#fff"></path><path d="M160.65,155.6l-3.93,8.32-6.1-9.29A97.26,97.26,0,0,0,160.65,155.6Z" style="fill:#fff"></path></g><path d="M195.89,187.68a13.87,13.87,0,0,1,0,1.44,16.87,16.87,0,0,1-.27,2.21c-7-11.1-5.34-21.14-5.34-21.14l3.31,1.57c.38,1.65.74,3.37,1.06,5.14h0A83.65,83.65,0,0,1,195.89,187.68Z" style="opacity:0.2;isolation:isolate"></path><path d="M167.53,109.73c11.87-4.09,14.85,11.72,3.06,22.41s-25.33,12-26.87,6.58S149.41,116,167.53,109.73Z" style="fill:#407BFF"></path><path d="M155.64,108.93c6.09,0,14.74,6.2,14.74,6.2s1.24,6.6-4.83,12.4S154,134.25,150.62,132s-4.32-11-4.32-11a6.7,6.7,0,0,1,4.32-4.45S151.62,109,155.64,108.93Z" style="fill:#407BFF"></path><path d="M165.55,127.53c-6.07,5.8-11.53,6.72-14.93,4.48a5.42,5.42,0,0,1-1.48-1.56c-2.2-3.31-2.84-9.42-2.84-9.42,5.8,7,12.52-.23,13.45-5.11a7.72,7.72,0,0,0-1.55-6.69c4,.86,8.38,3.42,10.64,4.87,1,.61,1.54,1,1.54,1S171.62,121.73,165.55,127.53Z" style="opacity:0.2;isolation:isolate"></path><path d="M165.55,127.53c-6.07,5.8-11.53,6.72-14.93,4.48a5.42,5.42,0,0,1-1.48-1.56c6.08,1.81,13.32-1.2,17.21-6.61a13.4,13.4,0,0,0,2.49-9.74c1,.61,1.54,1,1.54,1S171.62,121.73,165.55,127.53Z" style="fill:#fff;opacity:0.6000000000000001;isolation:isolate"></path><path d="M187.94,153.92s-4.69,9.48,6.7,24.51L219.75,160l-10-18.15Z" style="fill:#407BFF"></path><path d="M219.75,160l-6.55,4.81-9.69,7.13-8.87,6.52c-.58-.76-1.11-1.51-1.61-2.24a43.31,43.31,0,0,1-2.76-4.64A26.92,26.92,0,0,1,187,159.47a13.28,13.28,0,0,1,1-5.55l5.58-3.1,9.61-5.33,4.22-2.35,2.38-1.32Z" style="fill:#fff;opacity:0.6000000000000001;isolation:isolate"></path><g style="opacity:0.2"><polygon points="213.2 164.78 203.51 171.91 199.24 162.41 213.2 164.78" style="fill:#fff"></polygon><polygon points="212.3 149.5 203.36 153.04 203.13 145.49 207.35 143.14 212.3 149.5" style="fill:#fff"></polygon><path d="M196.72,156.94,187,159.47a13.28,13.28,0,0,1,1-5.55l5.58-3.1Z" style="fill:#fff"></path><path d="M194.64,169.07,193,176.19a43.31,43.31,0,0,1-2.76-4.64Z" style="fill:#fff"></path></g></g></g><g id="freepik--Suitcase--inject-71"><path d="M256.44,324.61,241,323.39l5.1-65.11,15.49,1.21Zm-12.27-4,9.51.74,4.63-59.13-9.5-.74Z" style="fill:#263238"></path><path d="M245.77,408.54l2,.16a4,4,0,1,1-.63,7.94l-2-.16a4,4,0,1,1,.62-7.94Z" style="fill:#263238"></path><path d="M241.42,412.12a4.06,4.06,0,1,0,4.36-3.72A4,4,0,0,0,241.42,412.12Z" style="fill:#fff;opacity:0.1;isolation:isolate"></path><path d="M234.85,407.69l2,.15a4,4,0,1,1-.62,7.94l-2-.15a4,4,0,1,1,.62-7.94Z" style="fill:#263238"></path><path d="M230.5,411.27a4.06,4.06,0,1,0,4.36-3.73A4.07,4.07,0,0,0,230.5,411.27Z" style="fill:#fff;opacity:0.2;isolation:isolate"></path><rect x="234.21" y="309.93" width="20.9" height="99.71" rx="2.69" transform="translate(460.47 737.59) rotate(-175.52)" style="fill:#263238"></rect><rect x="241.94" y="310.24" width="13.16" height="99.71" rx="2.69" transform="translate(468.16 738.49) rotate(-175.52)" style="fill:#fff;opacity:0.2;isolation:isolate"></rect><rect x="245.32" y="257.03" width="17.05" height="5.23" rx="2" transform="matrix(-1, -0.08, 0.08, -1, 486.63, 538.32)" style="fill:#263238"></rect><rect x="245.32" y="257.03" width="17.05" height="5.23" rx="2" transform="matrix(-1, -0.08, 0.08, -1, 486.63, 538.32)" style="fill:#fff;opacity:0.2;isolation:isolate"></rect><rect x="245.33" y="256.57" width="5.09" height="5.23" rx="2" transform="translate(474.79 536.91) rotate(-175.53)" style="opacity:0.2;isolation:isolate"></rect><path d="M287.54,320.64l-6.66,85a5.68,5.68,0,0,1-6.1,5.22l-31-2.43a4,4,0,0,1-3.65-4.29L247,315.77a4,4,0,0,1,4.28-3.66l31,2.43A5.68,5.68,0,0,1,287.54,320.64Z" style="fill:#407BFF"></path><path d="M287.54,320.64l-6.66,85a5.68,5.68,0,0,1-6.1,5.22l-31-2.43a4,4,0,0,1-3.65-4.29L247,315.77a4,4,0,0,1,4.28-3.66l31,2.43A5.68,5.68,0,0,1,287.54,320.64Z" style="fill:#fff;opacity:0.2;isolation:isolate"></path><path d="M266.22,313.28v.12l-1.11-.09a4,4,0,0,0-4.28,3.67l-6.92,88.34a4,4,0,0,0,2.73,4.08l-12.89-1a4,4,0,0,1-3.66-4.28L247,315.78a4,4,0,0,1,4.28-3.67Z" style="opacity:0.2;isolation:isolate"></path><rect x="260.93" y="316.22" width="2.64" height="89.05" rx="1.09" transform="translate(28.98 -19.38) rotate(4.48)" style="opacity:0.2;isolation:isolate"></rect><rect x="267.14" y="317.14" width="2.64" height="89.05" rx="1.09" transform="translate(29.07 -19.87) rotate(4.48)" style="opacity:0.2;isolation:isolate"></rect><rect x="273.34" y="317.51" width="2.64" height="89.05" rx="1.09" transform="translate(29.13 -20.35) rotate(4.48)" style="opacity:0.2;isolation:isolate"></rect><rect x="279.54" y="317.87" width="2.64" height="89.05" rx="1.09" transform="translate(29.17 -20.83) rotate(4.48)" style="opacity:0.2;isolation:isolate"></rect></g></svg>